<?xml version="1.0" encoding="UTF-8"?>
<svg width="1200pt" height="1200pt" version="1.1" viewBox="0 0 1200 1200" xmlns="http://www.w3.org/2000/svg">
 <path d="m1037.4 299.81-186.19-224.06c-10.312-12.375-25.312-19.5-41.25-19.5h-607.69c-28.875 0-52.312 24.375-52.312 54.375v978.74c0 30 23.438 54.375 52.312 54.375h795.37c28.875 0 52.312-24.375 52.312-54.375v-754.69c0-12.562-4.5-24.938-12.562-34.875zm-737.06-207.37h63.938v178.31h-46.312c-10.125 0-17.625-5.8125-17.625-11.062zm99.938 0h331.5v167.26c0 5.25-7.5 11.062-17.625 11.062h-313.87zm613.69 996.94c0 9.9375-7.3125 18.188-16.312 18.188h-795.37c-9 0-16.312-8.0625-16.312-18.188v-978.74c0-9.9375 7.3125-18.188 16.312-18.188h62.062v167.26c0 26.062 24 47.25 53.625 47.25h396.19c29.438 0 53.625-21.188 53.625-47.25v-167.26h42.188c5.25 0 10.312 2.4375 13.875 6.5625l186.19 224.06c2.625 3.1875 4.125 7.3125 4.125 11.625v754.69z"/>
 <path d="m584.81 391.31c-166.69 0-302.44 136.69-302.44 304.5s135.56 304.5 302.44 304.5c166.87 0 302.44-136.69 302.44-304.5s-135.74-304.5-302.44-304.5zm0 573c-146.81 0-266.44-120.37-266.44-268.31s119.44-268.5 266.44-268.5 266.44 120.37 266.44 268.31-119.62 268.5-266.44 268.5z"/>
 <path d="m584.81 536.26c-87.375 0-158.44 71.625-158.44 159.56s71.062 159.56 158.44 159.56 158.44-71.625 158.44-159.56c-0.1875-87.938-71.25-159.56-158.44-159.56zm0 282.94c-67.5 0-122.44-55.312-122.44-123.37 0-68.059 54.938-123.37 122.44-123.37s122.44 55.312 122.44 123.37c0 68.059-54.938 123.37-122.44 123.37z"/>
 <path d="m584.81 608.81c-47.625 0-86.438 39-86.438 87s38.812 87 86.438 87 86.438-39 86.438-87-38.812-87-86.438-87zm0 138c-27.75 0-50.438-22.875-50.438-50.812s22.688-50.812 50.438-50.812 50.438 22.875 50.438 50.812-22.688 50.812-50.438 50.812z"/>
</svg>
