<svg width="50" height="29" viewBox="0 0 50 29" fill="none" xmlns="http://www.w3.org/2000/svg">
<g clip-path="url(#clip0_53_447)">
<path d="M8.57238 1.90365C9.0298 1.90365 9.40062 1.51352 9.40062 1.03227C9.40062 0.55102 9.0298 0.160889 8.57238 0.160889C8.11496 0.160889 7.74414 0.55102 7.74414 1.03227C7.74414 1.51352 8.11496 1.90365 8.57238 1.90365Z" stroke="#1C75BC" stroke-miterlimit="10"/>
<path d="M0.15247 14.7781C0.15247 9.8038 3.99721 5.75879 8.72521 5.75879C13.4532 5.75879 17.2979 9.8038 17.2979 14.7781C17.2979 15.1061 17.0443 15.3729 16.7325 15.3729C16.4208 15.3729 16.1671 15.1061 16.1671 14.7781C16.1671 10.4598 12.8267 6.94528 8.72215 6.94528C4.61763 6.94528 1.28022 10.4598 1.28022 14.7781C1.28022 15.1061 1.02655 15.3729 0.714817 15.3729C0.403081 15.3729 0.149414 15.1061 0.149414 14.7781H0.15247Z" stroke="#58595B" stroke-miterlimit="10"/>
<path d="M16.7454 15.3055C17.0493 15.3055 17.2956 15.0464 17.2956 14.7267C17.2956 14.4071 17.0493 14.1479 16.7454 14.1479C16.4416 14.1479 16.1953 14.4071 16.1953 14.7267C16.1953 15.0464 16.4416 15.3055 16.7454 15.3055Z" stroke="#58595B" stroke-miterlimit="10"/>
<path d="M8.57227 1.90356V5.75887" stroke="#58595B" stroke-miterlimit="10"/>
<path d="M17.2978 19.82C17.2978 24.7942 13.4531 28.8392 8.72508 28.8392C3.99709 28.8392 0.152344 24.791 0.152344 19.82C0.152344 19.492 0.406011 19.2251 0.717747 19.2251C1.02948 19.2251 1.28315 19.492 1.28315 19.82C1.28315 24.1383 4.62361 27.6527 8.72814 27.6527C12.8327 27.6527 16.1731 24.1383 16.1731 19.82C16.1731 19.492 16.4268 19.2251 16.7385 19.2251C17.0503 19.2251 17.3039 19.492 17.3039 19.82H17.2978Z" stroke="#58595B" stroke-miterlimit="10"/>
<path d="M0.702466 20.45C1.00629 20.45 1.25259 20.1909 1.25259 19.8713C1.25259 19.5516 1.00629 19.2925 0.702466 19.2925C0.398642 19.2925 0.152344 19.5516 0.152344 19.8713C0.152344 20.1909 0.398642 20.45 0.702466 20.45Z" stroke="#58595B" stroke-miterlimit="10"/>
<path d="M8.875 27.7041V21.0032" stroke="#58595B" stroke-miterlimit="10"/>
<path d="M8.87511 21.0352C9.33254 21.0352 9.70335 20.6451 9.70335 20.1639C9.70335 19.6826 9.33254 19.2925 8.87511 19.2925C8.41769 19.2925 8.04688 19.6826 8.04688 20.1639C8.04688 20.6451 8.41769 21.0352 8.87511 21.0352Z" stroke="#EF4136" stroke-miterlimit="10"/>
<path d="M49.0187 17.5081C49.4761 17.5081 49.8469 17.118 49.8469 16.6368C49.8469 16.1555 49.4761 15.7654 49.0187 15.7654C48.5612 15.7654 48.1904 16.1555 48.1904 16.6368C48.1904 17.118 48.5612 17.5081 49.0187 17.5081Z" stroke="#FFF200" stroke-miterlimit="10"/>
<path d="M35.957 7.77816C40.685 7.77816 44.5297 11.8232 44.5297 16.7975C44.5297 21.7717 40.685 25.8167 35.957 25.8167C35.6453 25.8167 35.3916 25.5499 35.3916 25.2219C35.3916 24.8939 35.6453 24.627 35.957 24.627C40.0615 24.627 43.402 21.1126 43.402 16.7942C43.402 12.4759 40.0615 8.96144 35.957 8.96144C35.6453 8.96144 35.3916 8.69456 35.3916 8.36658C35.3916 8.03861 35.6453 7.77173 35.957 7.77173V7.77816Z" stroke="#58595B" stroke-miterlimit="10"/>
<path d="M36.0052 25.8136C36.309 25.8136 36.5553 25.5544 36.5553 25.2348C36.5553 24.9151 36.309 24.656 36.0052 24.656C35.7014 24.656 35.4551 24.9151 35.4551 25.2348C35.4551 25.5544 35.7014 25.8136 36.0052 25.8136Z" stroke="#58595B" stroke-miterlimit="10"/>
<path d="M48.1908 16.6367H44.5264" stroke="#58595B" stroke-miterlimit="10"/>
<path d="M28.3829 17.9518C28.8404 17.9518 29.2112 17.5616 29.2112 17.0804C29.2112 16.5991 28.8404 16.209 28.3829 16.209C27.9255 16.209 27.5547 16.5991 27.5547 17.0804C27.5547 17.5616 27.9255 17.9518 28.3829 17.9518Z" stroke="#00A79D" stroke-miterlimit="10"/>
<path d="M31.1645 25.8135C26.4365 25.8135 22.5918 21.7685 22.5918 16.7942C22.5918 11.8199 26.4365 7.7749 31.1645 7.7749C31.4763 7.7749 31.7299 8.04178 31.7299 8.36976C31.7299 8.69773 31.4763 8.96461 31.1645 8.96461C27.06 8.96461 23.7195 12.4791 23.7195 16.7974C23.7195 21.1157 27.06 24.6302 31.1645 24.6302C31.4763 24.6302 31.7299 24.8971 31.7299 25.2251C31.7299 25.553 31.4763 25.8199 31.1645 25.8199V25.8135Z" stroke="#58595B" stroke-miterlimit="10"/>
<path d="M31.1126 8.8746C31.4164 8.8746 31.6627 8.61547 31.6627 8.29582C31.6627 7.97617 31.4164 7.71704 31.1126 7.71704C30.8088 7.71704 30.5625 7.97617 30.5625 8.29582C30.5625 8.61547 30.8088 8.8746 31.1126 8.8746Z" stroke="#58595B" stroke-miterlimit="10"/>
<path d="M27.5551 17.0803H23.8906" stroke="#58595B" stroke-miterlimit="10"/>
</g>
<defs>
<clipPath id="clip0_53_447">
<rect width="50" height="29" fill="white"/>
</clipPath>
</defs>
</svg>
