<svg width="16" height="3" viewBox="0 0 16 3" fill="none" xmlns="http://www.w3.org/2000/svg">
<path d="M3.19885 1.5C3.19885 2.32833 2.48074 3 1.59942 3C0.718109 3 0 2.32833 0 1.5C0 0.671669 0.718109 0 1.59942 0C2.48074 0 3.19885 0.671669 3.19885 1.5ZM7.99904 0C7.1158 0 6.39962 0.673469 6.39962 1.5C6.39962 2.32653 7.11772 3 7.99904 3C8.88036 3 9.59846 2.32653 9.59846 1.5C9.59846 0.673469 8.88228 0 7.99904 0ZM14.4006 0C13.5173 0 12.8012 0.673469 12.8012 1.5C12.8012 2.32653 13.5193 3 14.4006 3C15.2819 3 16 2.32653 16 1.5C16 0.671669 15.2819 0 14.4006 0Z" fill="#393834"/>
</svg>
