<svg width="58" height="31" viewBox="0 0 58 31" fill="none" xmlns="http://www.w3.org/2000/svg">
<path d="M56.6 2.35C56.6 17.82 44.02 30.4 28.55 30.4C13.08 30.4 0.5 17.81 0.5 2.35C0.5 1.33 1.33 0.5 2.35 0.5C3.37 0.5 4.2 1.33 4.2 2.35C4.2 15.78 15.13 26.71 28.56 26.71C41.99 26.71 52.92 15.78 52.92 2.35C52.92 1.33 53.75 0.5 54.77 0.5C55.79 0.5 56.62 1.33 56.62 2.35H56.6Z" stroke="#58595B" stroke-miterlimit="10"/>
<path d="M2.3 4.30999C3.29411 4.30999 4.1 3.5041 4.1 2.50999C4.1 1.51588 3.29411 0.709991 2.3 0.709991C1.30589 0.709991 0.5 1.51588 0.5 2.50999C0.5 3.5041 1.30589 4.30999 2.3 4.30999Z" stroke="#58595B" stroke-miterlimit="10"/>
<path d="M29.04 26.87V6.03" stroke="#58595B" stroke-miterlimit="10"/>
<path d="M29.04 6.12999C30.5367 6.12999 31.75 4.91668 31.75 3.41999C31.75 1.9233 30.5367 0.709991 29.04 0.709991C27.5433 0.709991 26.33 1.9233 26.33 3.41999C26.33 4.91668 27.5433 6.12999 29.04 6.12999Z" stroke="#EF4136" stroke-miterlimit="10"/>
</svg>
