<svg width="58" height="49" viewBox="0 0 58 49" fill="none" xmlns="http://www.w3.org/2000/svg">
<path d="M28.05 5.92C29.5467 5.92 30.76 4.70669 30.76 3.21C30.76 1.71331 29.5467 0.5 28.05 0.5C26.5533 0.5 25.34 1.71331 25.34 3.21C25.34 4.70669 26.5533 5.92 28.05 5.92Z" stroke="#1C75BC" stroke-width="1.5" stroke-miterlimit="10"/>
<path d="M0.49999 45.96C0.49999 30.49 13.08 17.91 28.55 17.91C44.02 17.91 56.6 30.49 56.6 45.96C56.6 46.98 55.77 47.81 54.75 47.81C53.73 47.81 52.9 46.98 52.9 45.96C52.9 32.53 41.97 21.6 28.54 21.6C15.11 21.6 4.18999 32.53 4.18999 45.96C4.18999 46.98 3.35999 47.81 2.33999 47.81C1.31999 47.81 0.48999 46.98 0.48999 45.96H0.49999Z" stroke="#58595B" stroke-width="1.5" stroke-miterlimit="10"/>
<path d="M54.79 47.6C55.7841 47.6 56.59 46.7941 56.59 45.8C56.59 44.8059 55.7841 44 54.79 44C53.7959 44 52.99 44.8059 52.99 45.8C52.99 46.7941 53.7959 47.6 54.79 47.6Z" stroke="#58595B" stroke-width="1.5" stroke-miterlimit="10"/>
<path d="M28.05 5.92001V17.91" stroke="#58595B" stroke-width="1.5" stroke-miterlimit="10"/>
</svg>
