<svg width="49" height="58" viewBox="0 0 49 58" fill="none" xmlns="http://www.w3.org/2000/svg">
<path d="M45.09 30.78C46.5867 30.78 47.8 29.5667 47.8 28.07C47.8 26.5733 46.5867 25.36 45.09 25.36C43.5933 25.36 42.38 26.5733 42.38 28.07C42.38 29.5667 43.5933 30.78 45.09 30.78Z" stroke="#FFF200" stroke-miterlimit="10"/>
<path d="M2.35 0.52C17.82 0.52 30.4 13.1 30.4 28.57C30.4 44.04 17.82 56.62 2.35 56.62C1.33 56.62 0.5 55.79 0.5 54.77C0.5 53.75 1.33 52.92 2.35 52.92C15.78 52.92 26.71 41.99 26.71 28.56C26.71 15.13 15.78 4.2 2.35 4.2C1.33 4.2 0.5 3.37 0.5 2.35C0.5 1.33 1.33 0.5 2.35 0.5V0.52Z" stroke="#58595B" stroke-miterlimit="10"/>
<path d="M2.51002 56.61C3.50413 56.61 4.31002 55.8041 4.31002 54.81C4.31002 53.8159 3.50413 53.01 2.51002 53.01C1.5159 53.01 0.710022 53.8159 0.710022 54.81C0.710022 55.8041 1.5159 56.61 2.51002 56.61Z" stroke="#58595B" stroke-miterlimit="10"/>
<path d="M42.38 28.07H30.39" stroke="#58595B" stroke-miterlimit="10"/>
</svg>
