<svg width="31" height="58" viewBox="0 0 31 58" fill="none" xmlns="http://www.w3.org/2000/svg">
<path d="M19.4501 32.33C20.9467 32.33 22.16 31.1167 22.16 29.62C22.16 28.1233 20.9467 26.91 19.4501 26.91C17.9534 26.91 16.7401 28.1233 16.7401 29.62C16.7401 31.1167 17.9534 32.33 19.4501 32.33Z" stroke="#00A79D" stroke-miterlimit="10"/>
<path d="M28.55 56.78C13.08 56.78 0.5 44.2 0.5 28.73C0.5 13.26 13.08 0.679993 28.55 0.679993C29.57 0.679993 30.4 1.50999 30.4 2.52999C30.4 3.54999 29.57 4.37999 28.55 4.37999C15.12 4.37999 4.19 15.31 4.19 28.74C4.19 42.17 15.12 53.1 28.55 53.1C29.57 53.1 30.4 53.93 30.4 54.95C30.4 55.97 29.57 56.8 28.55 56.8V56.78Z" stroke="#58595B" stroke-miterlimit="10"/>
<path d="M28.38 4.1C29.3741 4.1 30.18 3.29411 30.18 2.3C30.18 1.30589 29.3741 0.5 28.38 0.5C27.3859 0.5 26.58 1.30589 26.58 2.3C26.58 3.29411 27.3859 4.1 28.38 4.1Z" stroke="#58595B" stroke-miterlimit="10"/>
<path d="M16.74 29.62H4.75" stroke="#58595B" stroke-miterlimit="10"/>
</svg>
