<svg width="70" height="84" viewBox="0 0 70 84" fill="none" xmlns="http://www.w3.org/2000/svg">
<path d="M27.7402 42C27.7402 53.5182 26.1411 63.904 23.585 71.375C22.3053 75.1151 20.8043 78.0703 19.1865 80.0703C17.5617 82.0789 15.9277 83 14.3701 83C12.8125 83 11.1785 82.0789 9.55371 80.0703C7.93591 78.0703 6.43495 75.1151 5.15527 71.375C2.5991 63.904 1 53.5182 1 42C1 30.4818 2.5991 20.096 5.15528 12.625C6.43496 8.88491 7.93592 5.92974 9.55371 3.92969C11.1785 1.92107 12.8125 1 14.3701 1C15.9277 1 17.5617 1.92107 19.1865 3.92969C20.8043 5.92974 22.3053 8.88491 23.585 12.625C26.1411 20.096 27.7402 30.4818 27.7402 42Z" stroke="#D94F2B" stroke-width="2"/>
<path d="M47.9658 42C47.9658 53.5182 46.3667 63.904 43.8105 71.375C42.5309 75.1151 41.0299 78.0703 39.4121 80.0703C37.7873 82.0789 36.1533 83 34.5957 83C33.0381 83 31.4041 82.0789 29.7793 80.0703C28.1615 78.0703 26.6605 75.1151 25.3809 71.375C22.8247 63.904 21.2256 53.5182 21.2256 42C21.2256 30.4818 22.8247 20.096 25.3809 12.625C26.6605 8.88491 28.1615 5.92974 29.7793 3.92969C31.4041 1.92107 33.0381 1 34.5957 1C36.1533 1 37.7873 1.92107 39.4121 3.92969C41.0299 5.92974 42.5309 8.88491 43.8105 12.625C46.3667 20.096 47.9658 30.4818 47.9658 42Z" stroke="#D94F2B" stroke-width="2"/>
<path d="M68.7227 42C68.7227 53.5182 67.1236 63.904 64.5674 71.375C63.2877 75.1151 61.7867 78.0703 60.1689 80.0703C58.5441 82.0789 56.9101 83 55.3525 83C53.795 83 52.1609 82.0789 50.5361 80.0703C48.9183 78.0703 47.4174 75.1151 46.1377 71.375C43.5815 63.904 41.9824 53.5182 41.9824 42C41.9824 30.4818 43.5815 20.096 46.1377 12.625C47.4174 8.88491 48.9183 5.92974 50.5361 3.92969C52.161 1.92107 53.795 1 55.3525 1C56.9101 1 58.5441 1.92107 60.1689 3.92969C61.7867 5.92974 63.2877 8.88491 64.5674 12.625C67.1236 20.096 68.7227 30.4818 68.7227 42Z" stroke="#D94F2B" stroke-width="2"/>
</svg>
