<svg width="8" height="9" viewBox="-0.2 -0.2 8.4 9.4" fill="none" xmlns="http://www.w3.org/2000/svg">
<path d="M7.6751 2.47553L6.10282 0.487006C5.85803 0.177185 5.50793 0 5.13984 0H1.28698C0.945888 0 0.618292 0.153898 0.377995 0.425245C0.136798 0.696591 0 1.06514 0 1.44786V7.55113C0 7.93486 0.136798 8.30341 0.377995 8.57374C0.619192 8.84509 0.946788 8.99797 1.28698 8.99899H6.71212C7.05321 8.99899 7.38081 8.84509 7.6211 8.57374C7.8623 8.3024 7.9982 7.93385 7.9991 7.55113V3.43942C7.9991 3.08404 7.883 2.7408 7.6742 2.47452L7.6751 2.47553ZM7.5923 7.55214C7.5923 7.81438 7.49961 8.06649 7.33491 8.25177C7.16931 8.43706 6.94611 8.54134 6.71302 8.54134H1.28698C0.80099 8.54134 0.406795 8.09787 0.406795 7.55113V1.44887C0.406795 0.902126 0.80099 0.458657 1.28698 0.458657H5.13984C5.39093 0.458657 5.63033 0.579143 5.79683 0.790753L7.36911 2.77928C7.51311 2.96153 7.5923 3.19642 7.5914 3.44043V7.55214H7.5923Z" fill="#393834" stroke="#393834" stroke-width="0.4"/>
</svg>
