<svg width="1379" height="156" viewBox="0 0 1379 156" fill="none" xmlns="http://www.w3.org/2000/svg">
<g clip-path="url(#clip0_73_9029)">
<path d="M30.984 1.2251H9.50169C4.93847 1.2251 1.23926 4.88183 1.23926 9.39264V58.3979C1.23926 62.9087 4.93847 66.5654 9.50169 66.5654H30.984C35.5472 66.5654 39.2464 62.9087 39.2464 58.3979V9.39264C39.2464 4.88183 35.5472 1.2251 30.984 1.2251Z" stroke="#2A2726"/>
<path opacity="0.55" d="M20.2429 27.3613L11.9805 37.8158H28.5053L20.2429 27.3613Z" fill="#2A2726"/>
<path d="M30.984 79.6335H9.50169C4.93847 79.6335 1.23926 83.2903 1.23926 87.8011V146.607C1.23926 151.118 4.93847 154.775 9.50169 154.775H30.984C35.5472 154.775 39.2464 151.118 39.2464 146.607V87.8011C39.2464 83.2903 35.5472 79.6335 30.984 79.6335Z" stroke="#2A2726"/>
<path opacity="0.55" d="M20.2429 123.738L11.9805 113.284H28.5053L20.2429 123.738Z" fill="#2A2726"/>
<path d="M120.218 79.6335H60.7287C56.1655 79.6335 52.4663 83.2903 52.4663 87.8011V146.607C52.4663 151.118 56.1655 154.775 60.7287 154.775H120.218C124.781 154.775 128.481 151.118 128.481 146.607V87.8011C128.481 83.2903 124.781 79.6335 120.218 79.6335Z" stroke="#2A2726"/>
<path d="M209.453 79.6335H149.963C145.4 79.6335 141.701 83.2903 141.701 87.8011V146.607C141.701 151.118 145.4 154.775 149.963 154.775H209.453C214.016 154.775 217.715 151.118 217.715 146.607V87.8011C217.715 83.2903 214.016 79.6335 209.453 79.6335Z" stroke="#2A2726"/>
<path d="M298.687 79.6335H239.197C234.634 79.6335 230.935 83.2903 230.935 87.8011V146.607C230.935 151.118 234.634 154.775 239.197 154.775H298.687C303.25 154.775 306.949 151.118 306.949 146.607V87.8011C306.949 83.2903 303.25 79.6335 298.687 79.6335Z" stroke="#2A2726"/>
<path d="M387.921 79.6335H328.432C323.869 79.6335 320.169 83.2903 320.169 87.8011V146.607C320.169 151.118 323.869 154.775 328.432 154.775H387.921C392.485 154.775 396.184 151.118 396.184 146.607V87.8011C396.184 83.2903 392.485 79.6335 387.921 79.6335Z" stroke="#2A2726"/>
<path d="M477.155 79.6335H417.666C413.103 79.6335 409.403 83.2903 409.403 87.8011V146.607C409.403 151.118 413.103 154.775 417.666 154.775H477.155C481.718 154.775 485.418 151.118 485.418 146.607V87.8011C485.418 83.2903 481.718 79.6335 477.155 79.6335Z" stroke="#2A2726"/>
<path d="M566.39 79.6335H506.9C502.337 79.6335 498.638 83.2903 498.638 87.8011V146.607C498.638 151.118 502.337 154.775 506.9 154.775H566.39C570.953 154.775 574.652 151.118 574.652 146.607V87.8011C574.652 83.2903 570.953 79.6335 566.39 79.6335Z" stroke="#2A2726"/>
<path d="M655.624 79.6335H596.135C591.571 79.6335 587.872 83.2903 587.872 87.8011V146.607C587.872 151.118 591.571 154.775 596.135 154.775H655.624C660.187 154.775 663.886 151.118 663.886 146.607V87.8011C663.886 83.2903 660.187 79.6335 655.624 79.6335Z" stroke="#2A2726"/>
<path d="M744.858 79.6335H685.369C680.806 79.6335 677.106 83.2903 677.106 87.8011V146.607C677.106 151.118 680.806 154.775 685.369 154.775H744.858C749.422 154.775 753.121 151.118 753.121 146.607V87.8011C753.121 83.2903 749.422 79.6335 744.858 79.6335Z" stroke="#2A2726"/>
<path d="M834.093 79.6335H774.603C770.04 79.6335 766.341 83.2903 766.341 87.8011V146.607C766.341 151.118 770.04 154.775 774.603 154.775H834.093C838.656 154.775 842.355 151.118 842.355 146.607V87.8011C842.355 83.2903 838.656 79.6335 834.093 79.6335Z" stroke="#2A2726"/>
<path d="M923.327 79.6335H863.838C859.274 79.6335 855.575 83.2903 855.575 87.8011V146.607C855.575 151.118 859.274 154.775 863.838 154.775H923.327C927.89 154.775 931.59 151.118 931.59 146.607V87.8011C931.59 83.2903 927.89 79.6335 923.327 79.6335Z" stroke="#2A2726"/>
<path d="M1012.56 79.6335H953.072C948.508 79.6335 944.809 83.2903 944.809 87.8011V146.607C944.809 151.118 948.508 154.775 953.072 154.775H1012.56C1017.12 154.775 1020.82 151.118 1020.82 146.607V87.8011C1020.82 83.2903 1017.12 79.6335 1012.56 79.6335Z" stroke="#2A2726"/>
<path d="M1101.8 79.6335H1042.31C1037.74 79.6335 1034.04 83.2903 1034.04 87.8011V146.607C1034.04 151.118 1037.74 154.775 1042.31 154.775H1101.8C1106.36 154.775 1110.06 151.118 1110.06 146.607V87.8011C1110.06 83.2903 1106.36 79.6335 1101.8 79.6335Z" stroke="#2A2726"/>
<path d="M1191.03 79.6335H1131.54C1126.98 79.6335 1123.28 83.2903 1123.28 87.8011V146.607C1123.28 151.118 1126.98 154.775 1131.54 154.775H1191.03C1195.59 154.775 1199.29 151.118 1199.29 146.607V87.8011C1199.29 83.2903 1195.59 79.6335 1191.03 79.6335Z" stroke="#2A2726"/>
<path d="M1280.26 79.6335H1220.77C1216.21 79.6335 1212.51 83.2903 1212.51 87.8011V146.607C1212.51 151.118 1216.21 154.775 1220.77 154.775H1280.26C1284.83 154.775 1288.53 151.118 1288.53 146.607V87.8011C1288.53 83.2903 1284.83 79.6335 1280.26 79.6335Z" stroke="#2A2726"/>
<path d="M1369.5 79.6335H1310.01C1305.45 79.6335 1301.75 83.2903 1301.75 87.8011V146.607C1301.75 151.118 1305.45 154.775 1310.01 154.775H1369.5C1374.06 154.775 1377.76 151.118 1377.76 146.607V87.8011C1377.76 83.2903 1374.06 79.6335 1369.5 79.6335Z" stroke="#2A2726"/>
<path d="M123.828 1.2251H64.3386C59.7754 1.2251 56.0762 4.88183 56.0762 9.39264V58.3979C56.0762 62.9087 59.7754 66.5654 64.3386 66.5654H123.828C128.391 66.5654 132.091 62.9087 132.091 58.3979V9.39264C132.091 4.88183 128.391 1.2251 123.828 1.2251Z" stroke="#2A2726"/>
<path d="M213.062 1.2251H153.573C149.01 1.2251 145.311 4.88183 145.311 9.39264V58.3979C145.311 62.9087 149.01 66.5654 153.573 66.5654H213.062C217.626 66.5654 221.325 62.9087 221.325 58.3979V9.39264C221.325 4.88183 217.626 1.2251 213.062 1.2251Z" stroke="#2A2726"/>
<path d="M388.531 1H329.042C324.479 1 320.779 4.65673 320.779 9.16754V58.1728C320.779 62.6836 324.479 66.3403 329.042 66.3403H388.531C393.094 66.3403 396.794 62.6836 396.794 58.1728V9.16754C396.794 4.65673 393.094 1 388.531 1Z" stroke="#2A2726"/>
<path d="M477.766 1H418.276C413.713 1 410.014 4.65673 410.014 9.16754V58.1728C410.014 62.6836 413.713 66.3403 418.276 66.3403H477.766C482.329 66.3403 486.028 62.6836 486.028 58.1728V9.16754C486.028 4.65673 482.329 1 477.766 1Z" stroke="#2A2726"/>
<path d="M567 1H507.51C502.947 1 499.248 4.65673 499.248 9.16754V58.1728C499.248 62.6836 502.947 66.3403 507.51 66.3403H567C571.563 66.3403 575.262 62.6836 575.262 58.1728V9.16754C575.262 4.65673 571.563 1 567 1Z" stroke="#2A2726"/>
<path d="M745.468 1.2251H685.979C681.416 1.2251 677.716 4.88183 677.716 9.39264V58.3979C677.716 62.9087 681.416 66.5654 685.979 66.5654H745.468C750.031 66.5654 753.731 62.9087 753.731 58.3979V9.39264C753.731 4.88183 750.031 1.2251 745.468 1.2251Z" stroke="#2A2726"/>
<path d="M834.703 1.2251H775.213C770.65 1.2251 766.951 4.88183 766.951 9.39264V58.3979C766.951 62.9087 770.65 66.5654 775.213 66.5654H834.703C839.266 66.5654 842.965 62.9087 842.965 58.3979V9.39264C842.965 4.88183 839.266 1.2251 834.703 1.2251Z" stroke="#2A2726"/>
<path d="M1013.17 1.2251H953.681C949.118 1.2251 945.419 4.88183 945.419 9.39264V58.3979C945.419 62.9087 949.118 66.5654 953.681 66.5654H1013.17C1017.73 66.5654 1021.43 62.9087 1021.43 58.3979V9.39264C1021.43 4.88183 1017.73 1.2251 1013.17 1.2251Z" stroke="#2A2726"/>
<path d="M1102.41 1.2251H1042.92C1038.35 1.2251 1034.65 4.88183 1034.65 9.39264V58.3979C1034.65 62.9087 1038.35 66.5654 1042.92 66.5654H1102.41C1106.97 66.5654 1110.67 62.9087 1110.67 58.3979V9.39264C1110.67 4.88183 1106.97 1.2251 1102.41 1.2251Z" stroke="#2A2726"/>
<path d="M1191.64 1.2251H1132.15C1127.59 1.2251 1123.89 4.88183 1123.89 9.39264V58.3979C1123.89 62.9087 1127.59 66.5654 1132.15 66.5654H1191.64C1196.2 66.5654 1199.9 62.9087 1199.9 58.3979V9.39264C1199.9 4.88183 1196.2 1.2251 1191.64 1.2251Z" stroke="#2A2726"/>
</g>
<defs>
<clipPath id="clip0_73_9029">
<rect width="1379" height="156" fill="white"/>
</clipPath>
</defs>
</svg>
