<svg width="26" height="8" viewBox="0 0 26 8" fill="none" xmlns="http://www.w3.org/2000/svg">
<path d="M1 4L1.0801 3.87425L1.1599 3.74893L1.24 3.62406L1.3201 3.49963L1.3999 3.37608L1.48 3.25386L1.5601 3.13296L1.6399 3.01338L1.72 2.89557L1.8001 2.77953L1.8799 2.66569L1.96 2.55449L2.0401 2.44551L2.1199 2.33961L2.2 2.23636L2.2801 2.1362L2.3599 2.03956L2.44 1.94602L2.5201 1.85645L2.5999 1.77041L2.68 1.68834L2.7601 1.61024L2.8399 1.53611L2.92 1.46683L3.0001 1.40153L3.0799 1.34108L3.16 1.28504L3.2401 1.23386L3.3199 1.18753L3.4 1.14649L3.4801 1.10987L3.5599 1.07898L3.64 1.05251L3.7201 1.03177L3.7999 1.01588L3.88 1.00529L3.9601 1H4.0399L4.12 1.00529L4.2001 1.01588L4.2799 1.03177L4.36 1.05251L4.4401 1.07898L4.5199 1.10987L4.6 1.14649L4.6801 1.18753L4.7599 1.23386L4.84 1.28504L4.9201 1.34108L4.9999 1.40153L5.08 1.46683L5.1601 1.53611L5.2399 1.61024L5.32 1.68834L5.4001 1.77041L5.4799 1.85645L5.56 1.94602L5.6401 2.03956L5.7199 2.1362L5.8 2.23636L5.8801 2.33961L5.9599 2.44551L6.04 2.55449L6.1201 2.66569L6.1999 2.77953L6.28 2.89557L6.3601 3.01338L6.4399 3.13296L6.52 3.25386L6.6001 3.37608L6.6799 3.49963L6.76 3.62406L6.8401 3.74893L6.9199 3.87425L7 4L7.0801 4.12575L7.1599 4.25107L7.24 4.37594L7.3201 4.50037L7.3999 4.62391L7.48 4.74614L7.5601 4.86704L7.6399 4.98662L7.72 5.10443L7.8001 5.22047L7.8799 5.33431L7.96 5.44551L8.0401 5.55449L8.1199 5.66039L8.2 5.76364L8.2801 5.8638L8.3599 5.96043L8.44 6.05398L8.5201 6.14355L8.5999 6.22959L8.68 6.31166L8.7601 6.38976L8.8399 6.46389L8.92 6.53317L9.0001 6.59847L9.0799 6.65892L9.16 6.71496L9.2401 6.76614L9.3199 6.81247L9.4 6.85351L9.4801 6.89013L9.5599 6.92102L9.64 6.94749L9.7201 6.96823L9.7999 6.98411L9.88 6.9947L9.9601 7H10.0399L10.12 6.9947L10.2001 6.98411L10.2799 6.96823L10.36 6.94749L10.4401 6.92102L10.5199 6.89013L10.6 6.85351L10.6801 6.81247L10.7599 6.76614L10.84 6.71496L10.9201 6.65892L10.9999 6.59847L11.08 6.53317L11.1601 6.46389L11.2399 6.38976L11.32 6.31166L11.4001 6.22959L11.4799 6.14355L11.56 6.05398L11.6401 5.96043L11.7199 5.8638L11.8 5.76364L11.8801 5.66039L11.9599 5.55449L12.04 5.44551L12.1201 5.33431L12.1999 5.22047L12.28 5.10443L12.3601 4.98662L12.4399 4.86704L12.52 4.74614L12.6001 4.62391L12.6799 4.50037L12.76 4.37594L12.8401 4.25107L12.9199 4.12575L13 4L13.0801 3.87425L13.1599 3.74893L13.24 3.62406L13.3201 3.49963L13.3999 3.37608L13.48 3.25386L13.5601 3.13296L13.6399 3.01338L13.72 2.89557L13.8001 2.77953L13.8799 2.66569L13.96 2.55449L14.0401 2.44551L14.1199 2.33961L14.2 2.23636L14.2801 2.1362L14.3599 2.03956L14.44 1.94602L14.5201 1.85645L14.5999 1.77041L14.68 1.68834L14.7601 1.61024L14.8399 1.53611L14.92 1.46683L15.0001 1.40153L15.0799 1.34108L15.16 1.28504L15.2401 1.23386L15.3199 1.18753L15.4 1.14649L15.4801 1.10987L15.5599 1.07898L15.64 1.05251L15.7201 1.03177L15.7999 1.01588L15.88 1.00529L15.9601 1H16.0399L16.12 1.00529L16.2001 1.01588L16.2799 1.03177L16.36 1.05251L16.4401 1.07898L16.5199 1.10987L16.6 1.14649L16.6801 1.18753L16.7599 1.23386L16.84 1.28504L16.9201 1.34108L16.9999 1.40153L17.08 1.46683L17.1601 1.53611L17.2399 1.61024L17.32 1.68834L17.4001 1.77041L17.4799 1.85645L17.56 1.94602L17.6401 2.03956L17.7199 2.1362L17.8 2.23636L17.8801 2.33961L17.9599 2.44551L18.04 2.55449L18.1201 2.66569L18.1999 2.77953L18.28 2.89557L18.3601 3.01338L18.4399 3.13296L18.52 3.25386L18.6001 3.37608L18.6799 3.49963L18.76 3.62406L18.8401 3.74893L18.9199 3.87425L19 4L19.0801 4.12575L19.1599 4.25107L19.24 4.37594L19.3201 4.50037L19.3999 4.62391L19.48 4.74614L19.5601 4.86704L19.6399 4.98662L19.72 5.10443L19.8001 5.22047L19.8799 5.33431L19.96 5.44551L20.0401 5.55449L20.1199 5.66039L20.2 5.76364L20.2801 5.8638L20.3599 5.96043L20.44 6.05398L20.5201 6.14355L20.5999 6.22959L20.68 6.31166L20.7601 6.38976L20.8399 6.46389L20.92 6.53317L21.0001 6.59847L21.0799 6.65892L21.16 6.71496L21.2401 6.76614L21.3199 6.81247L21.4 6.85351L21.4801 6.89013L21.5599 6.92102L21.64 6.94749L21.7201 6.96823L21.7999 6.98411L21.88 6.9947L21.9601 7H22.0399L22.12 6.9947L22.2001 6.98411L22.2799 6.96823L22.36 6.94749L22.4401 6.92102L22.5199 6.89013L22.6 6.85351L22.6801 6.81247L22.7599 6.76614L22.84 6.71496L22.9201 6.65892L22.9999 6.59847L23.08 6.53317L23.1601 6.46389L23.2399 6.38976L23.32 6.31166L23.4001 6.22959L23.4799 6.14355L23.56 6.05398L23.6401 5.96043L23.7199 5.8638L23.8 5.76364L23.8801 5.66039L23.9599 5.55449L24.04 5.44551L24.1201 5.33431L24.1999 5.22047L24.28 5.10443L24.3601 4.98662L24.4399 4.86704L24.52 4.74614L24.6001 4.62391L24.6799 4.50037L24.76 4.37594L24.8401 4.25107L24.9199 4.12575L25 4" stroke="currentColor" stroke-width="2" stroke-linecap="round" stroke-linejoin="round"/>
</svg>
