<svg width="73" height="71" viewBox="0 0 73 71" fill="none" xmlns="http://www.w3.org/2000/svg">
<path d="M47.0864 4.41219C49.2483 6.19687 51.8147 7.42422 54.5708 7.98154C62.624 9.61593 68.3447 16.7233 68.1614 24.8639C68.0982 27.6505 68.7367 30.4058 70.0072 32.8856C73.7367 40.1433 71.695 49.004 65.1588 53.9385C62.9211 55.6292 61.1385 57.8397 59.9754 60.3758C56.5746 67.7901 48.3064 71.7351 40.3353 69.7438C37.6109 69.0612 34.7537 69.0612 32.0292 69.7438C24.0582 71.7351 15.79 67.7901 12.3892 60.3758C11.2261 57.8397 9.44347 55.6292 7.20575 53.9385C0.663277 49.004 -1.37848 40.1433 2.35737 32.8856C3.63426 30.4058 4.26638 27.6443 4.20317 24.8639C4.01985 16.7233 9.74057 9.61593 17.7938 7.98154C20.5499 7.42422 23.1226 6.19687 25.2782 4.41219C31.5868 -0.804065 40.7652 -0.804065 47.0738 4.41219H47.0864Z" fill="#2B5FD9" stroke="#2B5FD9" stroke-miterlimit="10"/>
</svg>
