<svg width="23" height="8" viewBox="0 0 23 8" fill="none" xmlns="http://www.w3.org/2000/svg">
<path d="M1 7L1.0525 6.93824L1.105 6.88088L1.1575 6.81912L1.21 6.76177L1.2625 6.7L1.315 6.63824L1.3675 6.58088L1.42 6.51912L1.4725 6.46176L1.525 6.4L1.5775 6.33824L1.63 6.28088L1.6825 6.21912L1.735 6.16176L1.7875 6.1L1.84 6.03824L1.8925 5.98088L1.945 5.91912L1.9975 5.86177L2.05 5.8L2.1025 5.73824L2.155 5.68088L2.2075 5.61912L2.26 5.56177L2.3125 5.5L2.365 5.43824L2.4175 5.38088L2.47 5.31912L2.5225 5.26176L2.575 5.2L2.6275 5.13824L2.68 5.08088L2.7325 5.01912L2.785 4.96177L2.8375 4.9L2.89 4.83824L2.9425 4.78088L2.995 4.71912L3.0475 4.66176L3.1 4.6L3.1525 4.53824L3.205 4.48088L3.2575 4.41912L3.31 4.36176L3.3625 4.3L3.415 4.23824L3.4675 4.18088L3.52 4.11912L3.5725 4.06176L3.625 4L3.6775 3.93824L3.73 3.88088L3.7825 3.81912L3.835 3.76176L3.8875 3.7L3.94 3.63824L3.9925 3.58088L4.045 3.51912L4.0975 3.46176L4.15 3.4L4.2025 3.33824L4.255 3.28088L4.3075 3.21912L4.36 3.16176L4.4125 3.1L4.465 3.03824L4.5175 2.98088L4.57 2.91912L4.6225 2.86176L4.675 2.8L4.7275 2.73824L4.78 2.68088L4.8325 2.61912L4.885 2.56176L4.9375 2.5L4.99 2.43824L5.0425 2.38088L5.095 2.31912L5.1475 2.26176L5.2 2.2L5.2525 2.13824L5.305 2.08088L5.3575 2.01912L5.41 1.96176L5.4625 1.9L5.515 1.83824L5.5675 1.78088L5.62 1.71912L5.6725 1.66176L5.725 1.6L5.7775 1.53824L5.83 1.48088L5.8825 1.41912L5.935 1.36176L5.9875 1.3L6.04 1.23824L6.0925 1.18088L6.145 1.11912L6.1975 1.06176L6.25 1L6.3025 1.06176L6.355 1.11912L6.4075 1.18088L6.46 1.23824L6.5125 1.3L6.565 1.36176L6.6175 1.41912L6.67 1.48088L6.7225 1.53824L6.775 1.6L6.8275 1.66176L6.88 1.71912L6.9325 1.78088L6.985 1.83824L7.0375 1.9L7.09 1.96176L7.1425 2.01912L7.195 2.08088L7.2475 2.13824L7.3 2.2L7.3525 2.26176L7.405 2.31912L7.4575 2.38088L7.51 2.43824L7.5625 2.5L7.615 2.56176L7.6675 2.61912L7.72 2.68088L7.7725 2.73824L7.825 2.8L7.8775 2.86176L7.93 2.91912L7.9825 2.98088L8.035 3.03824L8.0875 3.1L8.14 3.16176L8.1925 3.21912L8.245 3.28088L8.2975 3.33824L8.35 3.4L8.4025 3.46176L8.455 3.51912L8.5075 3.58088L8.56 3.63824L8.6125 3.7L8.665 3.76176L8.7175 3.81912L8.77 3.88088L8.8225 3.93824L8.875 4L8.9275 4.06176L8.98 4.11912L9.0325 4.18088L9.085 4.23824L9.1375 4.3L9.19 4.36176L9.2425 4.41912L9.295 4.48088L9.3475 4.53824L9.4 4.6L9.4525 4.66176L9.505 4.71912L9.5575 4.78088L9.61 4.83824L9.6625 4.9L9.715 4.96177L9.7675 5.01912L9.82 5.08088L9.8725 5.13824L9.925 5.2L9.9775 5.26176L10.03 5.31912L10.0825 5.38088L10.135 5.43824L10.1875 5.5L10.24 5.56177L10.2925 5.61912L10.345 5.68088L10.3975 5.73824L10.45 5.8L10.5025 5.86177L10.555 5.91912L10.6075 5.98088L10.66 6.03824L10.7125 6.1L10.765 6.16176L10.8175 6.21912L10.87 6.28088L10.9225 6.33824L10.975 6.4L11.0275 6.46176L11.08 6.51912L11.1325 6.58088L11.185 6.63824L11.2375 6.7L11.29 6.76177L11.3425 6.81912L11.395 6.88088L11.4475 6.93824L11.5 7L11.5525 6.93824L11.605 6.88088L11.6575 6.81912L11.71 6.76177L11.7625 6.7L11.815 6.63824L11.8675 6.58088L11.92 6.51912L11.9725 6.46176L12.025 6.4L12.0775 6.33824L12.13 6.28088L12.1825 6.21912L12.235 6.16176L12.2875 6.1L12.34 6.03824L12.3925 5.98088L12.445 5.91912L12.4975 5.86177L12.55 5.8L12.6025 5.73824L12.655 5.68088L12.7075 5.61912L12.76 5.56177L12.8125 5.5L12.865 5.43824L12.9175 5.38088L12.97 5.31912L13.0225 5.26176L13.075 5.2L13.1275 5.13824L13.18 5.08088L13.2325 5.01912L13.285 4.96177L13.3375 4.9L13.39 4.83824L13.4425 4.78088L13.495 4.71912L13.5475 4.66176L13.6 4.6L13.6525 4.53824L13.705 4.48088L13.7575 4.41912L13.81 4.36176L13.8625 4.3L13.915 4.23824L13.9675 4.18088L14.02 4.11912L14.0725 4.06176L14.125 4L14.1775 3.93824L14.23 3.88088L14.2825 3.81912L14.335 3.76176L14.3875 3.7L14.44 3.63824L14.4925 3.58088L14.545 3.51912L14.5975 3.46176L14.65 3.4L14.7025 3.33824L14.755 3.28088L14.8075 3.21912L14.86 3.16176L14.9125 3.1L14.965 3.03824L15.0175 2.98088L15.07 2.91912L15.1225 2.86176L15.175 2.8L15.2275 2.73824L15.28 2.68088L15.3325 2.61912L15.385 2.56176L15.4375 2.5L15.49 2.43824L15.5425 2.38088L15.595 2.31912L15.6475 2.26176L15.7 2.2L15.7525 2.13824L15.805 2.08088L15.8575 2.01912L15.91 1.96176L15.9625 1.9L16.015 1.83824L16.0675 1.78088L16.12 1.71912L16.1725 1.66176L16.225 1.6L16.2775 1.53824L16.33 1.48088L16.3825 1.41912L16.435 1.36176L16.4875 1.3L16.54 1.23824L16.5925 1.18088L16.645 1.11912L16.6975 1.06176L16.75 1L16.8025 1.06176L16.855 1.11912L16.9075 1.18088L16.96 1.23824L17.0125 1.3L17.065 1.36176L17.1175 1.41912L17.17 1.48088L17.2225 1.53824L17.275 1.6L17.3275 1.66176L17.38 1.71912L17.4325 1.78088L17.485 1.83824L17.5375 1.9L17.59 1.96176L17.6425 2.01912L17.695 2.08088L17.7475 2.13824L17.8 2.2L17.8525 2.26176L17.905 2.31912L17.9575 2.38088L18.01 2.43824L18.0625 2.5L18.115 2.56176L18.1675 2.61912L18.22 2.68088L18.2725 2.73824L18.325 2.8L18.3775 2.86176L18.43 2.91912L18.4825 2.98088L18.535 3.03824L18.5875 3.1L18.64 3.16176L18.6925 3.21912L18.745 3.28088L18.7975 3.33824L18.85 3.4L18.9025 3.46176L18.955 3.51912L19.0075 3.58088L19.06 3.63824L19.1125 3.7L19.165 3.76176L19.2175 3.81912L19.27 3.88088L19.3225 3.93824L19.375 4L19.4275 4.06176L19.48 4.11912L19.5325 4.18088L19.585 4.23824L19.6375 4.3L19.69 4.36176L19.7425 4.41912L19.795 4.48088L19.8475 4.53824L19.9 4.6L19.9525 4.66176L20.005 4.71912L20.0575 4.78088L20.11 4.83824L20.1625 4.9L20.215 4.96177L20.2675 5.01912L20.32 5.08088L20.3725 5.13824L20.425 5.2L20.4775 5.26176L20.53 5.31912L20.5825 5.38088L20.635 5.43824L20.6875 5.5L20.74 5.56177L20.7925 5.61912L20.845 5.68088L20.8975 5.73824L20.95 5.8L21.0025 5.86177L21.055 5.91912L21.1075 5.98088L21.16 6.03824L21.2125 6.1L21.265 6.16176L21.3175 6.21912L21.37 6.28088L21.4225 6.33824L21.475 6.4L21.5275 6.46176L21.58 6.51912L21.6325 6.58088L21.685 6.63824L21.7375 6.7L21.79 6.76177L21.8425 6.81912L21.895 6.88088L21.9475 6.93824L22 7" stroke="currentColor" stroke-width="2" stroke-linecap="round" stroke-linejoin="round"/>
</svg>
